Coordinates
version=1
nRows=24
nColumns=22
inDegrees=yes

Units are S.I. units (second, meters, Newtons, ...)
If the header above contains a line with 'inDegrees', this indicates whether rotational values are in degrees (yes) or radians (no).

endheader
time	pelvis_tilt	pelvis_list	pelvis_rotation	pelvis_tx	pelvis_ty	pelvis_tz	hip_flexion_r	hip_adduction_r	hip_rotation_r	knee_angle_r	ankle_angle_r	subtalar_angle_r	hip_flexion_l	hip_adduction_l	hip_rotation_l	knee_angle_l	ankle_angle_l	subtalar_angle_l	lumbar_extension	lumbar_bending	lumbar_rotation
      2.59000000	      0.03151725	     -1.32388075	     -0.24731202	     -0.56472816	      0.97837923	     -0.19742820	     29.41620082	      2.66172231	     -3.96090289	    -22.37443972	     -1.96916145	      6.12856958	    -13.02967111	      1.20403314	     -0.11684201	    -20.10889163	     17.43566365	      3.46811428	    -15.28197219	      1.77208425	     -4.89406908
      2.60000000	      0.05499091	     -1.70232695	     -0.37098258	     -0.55335718	      0.97877947	     -0.19598126	     29.41295956	      3.21556245	     -3.70638489	    -23.56517050	     -2.32208946	      5.27630514	    -13.08865064	      0.74764741	     -0.01227420	    -21.29044621	     16.42497640	      4.43359662	    -15.22122824	      2.24667957	     -4.56668888
      2.61000000	      0.11004378	     -2.06425985	     -0.49221568	     -0.54189695	      0.97940728	     -0.19456481	     29.29934268	      3.73839061	     -3.51104665	    -24.65368016	     -2.51146904	      4.39155741	    -13.09298864	      0.31457939	      0.11906422	    -22.60693775	     15.20927896	      5.42852780	    -15.19299475	      2.71378046	     -4.29467556
      2.62000000	      0.18471378	     -2.39904504	     -0.60069692	     -0.53037802	      0.98020542	     -0.19316895	     29.08344228	      4.21906820	     -3.38033905	    -25.62697671	     -2.55247339	      3.48082043	    -13.00610129	     -0.09270528	      0.25575650	    -24.08628188	     13.79583302	      6.42165461	    -15.18150622	      3.15413343	     -4.06837373
      2.63000000	      0.26960535	     -2.69056569	     -0.67921162	     -0.51885411	      0.98112899	     -0.19181004	     28.77642346	      4.63958726	     -3.30923700	    -26.48091761	     -2.43088798	      2.55778084	    -12.79111053	     -0.46530715	      0.39556196	    -25.75745332	     12.17848143	      7.38288654	    -15.17773335	      3.54808596	     -3.90468778
      2.64000000	      0.34985846	     -2.93281353	     -0.72187740	     -0.50737793	      0.98212316	     -0.19048486	     28.40028690	      4.99763974	     -3.28364540	    -27.21861224	     -2.15487631	      1.63618482	    -12.41321004	     -0.80368077	      0.52882684	    -27.63723409	     10.37454663	      8.29329952	    -15.16444852	      3.88483998	     -3.79791556
      2.65000000	      0.41167854	     -3.12276959	     -0.72032517	     -0.49600621	      0.98314537	     -0.18920581	     27.97956783	      5.28968352	     -3.29640498	    -27.84965514	     -1.73991939	      0.76492583	    -11.84430700	     -1.10937734	      0.65966117	    -29.73282352	      8.40749261	      9.11112942	    -15.12919245	      4.16076475	     -3.74941528
      2.66000000	      0.44941325	     -3.27117880	     -0.68556202	     -0.48476940	      0.98415814	     -0.18795192	     27.53243244	      5.53142310	     -3.33990660	    -28.39055662	     -1.17882687	     -0.04211141	    -11.08061684	     -1.39600365	      0.76959884	    -32.03316641	      6.33184967	      9.84474496	    -15.06804557	      4.38190772	     -3.71904104
      2.67000000	      0.46132649	     -3.38701746	     -0.60701988	     -0.47371934	      0.98514750	     -0.18677166	     27.06927005	      5.72423020	     -3.41604623	    -28.84655311	     -0.52129196	     -0.72246926	    -10.11811259	     -1.67247947	      0.87395394	    -34.52849319	      4.20501427	     10.45005623	    -14.98544558	      4.56540624	     -3.72000608
      2.68000000	      0.44959845	     -3.49039516	     -0.50298885	     -0.46286976	      0.98609794	     -0.18563772	     26.59701905	      5.89635383	     -3.50883903	    -29.22955007	      0.21222152	     -1.29726351	     -8.97364959	     -1.95951728	      0.95074797	    -37.19004287	      2.11216197	     10.95223947	    -14.88731683	      4.72854298	     -3.70898180
      2.69000000	      0.42044780	     -3.60129285	     -0.37169711	     -0.45223413	      0.98701431	     -0.18456109	     26.10889765	      6.06654564	     -3.61984021	    -29.53143132	      0.97455473	     -1.75656764	     -7.66565751	     -2.28011081	      0.99854998	    -39.98606360	      0.12376794	     11.32987361	    -14.78336108	      4.89341774	     -3.68110401
      2.70000000	      0.38879755	     -3.73427312	     -0.23208722	     -0.44179184	      0.98790693	     -0.18352117	     25.59500824	      6.25908002	     -3.72599539	    -29.76388486	      1.75118911	     -2.11532918	     -6.23634433	     -2.65223564	      0.99049757	    -42.86269818	     -1.69393432	     11.58920251	    -14.69177654	      5.07647756	     -3.61548014
      2.71000000	      0.33881259	     -3.88609223	     -0.09303486	     -0.43154368	      0.98874078	     -0.18249571	     25.08231578	      6.47762561	     -3.80669760	    -29.94257401	      2.54099803	     -2.42057103	     -4.68838778	     -3.06834768	      0.94629257	    -45.76941532	     -3.27342779	     11.78536147	    -14.59434044	      5.26860592	     -3.49230080
      2.72000000	      0.34269291	     -4.11967187	      0.07285292	     -0.42144293	      0.98965754	     -0.18149439	     24.46493654	      6.77971524	     -3.90251637	    -30.01101692	      3.23447802	     -2.61626103	     -3.11632562	     -3.61926526	      0.84675538	    -48.65269800	     -4.51438544	     11.90760954	    -14.57183573	      5.54717788	     -3.35438322
      2.73000000	      0.31321324	     -4.34991624	      0.22384180	     -0.41149966	      0.99050363	     -0.18046549	     23.86963604	      7.09603522	     -3.94612846	    -30.03639745	      3.93917002	     -2.81457776	     -1.45311822	     -4.18791086	      0.73000194	    -51.44643672	     -5.37062399	     12.05529299	    -14.51771817	      5.80098499	     -3.14644875
      2.74000000	      0.39863324	     -4.64224395	      0.37996086	     -0.40162410	      0.99157594	     -0.17942136	     23.09188747	      7.49410973	     -3.95645419	    -29.93651287	      4.56076704	     -2.93865891	      0.10273382	     -4.85690652	      0.58488881	    -54.06764607	     -5.79378344	     12.11294773	    -14.60299764	      6.11389180	     -2.87720425
      2.75000000	      0.41450691	     -4.88902128	      0.51897750	     -0.39191823	      0.99253049	     -0.17831860	     22.39805959	      7.85609617	     -3.94244728	    -29.83341556	      5.15579211	     -3.10273905	      1.76439416	     -5.49842662	      0.42451425	    -56.51647652	     -5.80998430	     12.07515192	    -14.61079523	      6.35125390	     -2.60447406
      2.76000000	      0.54737050	     -5.16004127	      0.64647865	     -0.38225540	      0.99374983	     -0.17716253	     21.52091142	      8.26438150	     -3.89080101	    -29.61458471	      5.68823202	     -3.20425668	      3.27342405	     -6.17594056	      0.26549969	    -58.69750895	     -5.43527542	     11.86938668	    -14.75557371	      6.59535570	     -2.25563066
      2.77000000	      0.65332815	     -5.39555772	      0.76306263	     -0.37271793	      0.99498909	     -0.17597248	     20.64999464	      8.64469182	     -3.81367756	    -29.33698003	      6.15740748	     -3.32283285	      4.80239104	     -6.80699020	      0.13345988	    -60.62306981	     -4.80952803	     11.37580262	    -14.86742037	      6.77979784	     -1.87267936
      2.78000000	      0.77720239	     -5.56730837	      0.85589886	     -0.36326545	      0.99631696	     -0.17475280	     19.73834668	      8.96697647	     -3.70621293	    -29.01940449	      6.64750890	     -3.45823436	      6.27260750	     -7.36226183	     -0.01450630	    -62.24960136	     -4.02195309	     10.43497657	    -14.99711853	      6.87464656	     -1.46853603
      2.79000000	      0.94130694	     -5.72453115	      0.92050966	     -0.35387487	      0.99778398	     -0.17349230	     18.74467599	      9.28420287	     -3.57136657	    -28.62228417	      7.05831643	     -3.54579585	      7.64720869	     -7.88502507	     -0.16017603	    -63.57303867	     -3.07422924	      9.53954953	    -15.17170734	      6.93489284	     -1.00756031
      2.80000000	      1.11175746	     -5.84440812	      0.94751946	     -0.34452787	      0.99931509	     -0.17222346	     17.71615669	      9.56242593	     -3.42803272	    -28.17316415	      7.43471011	     -3.61139971	      8.95073875	     -8.34207874	     -0.31846507	    -64.58788518	     -2.05457002	      8.58539784	    -15.34749783	      6.94010692	     -0.48665242
      2.81000000	      1.28307978	     -5.93383411	      0.93378548	     -0.33521396	      1.00088168	     -0.17093952	     16.65809345	      9.81159444	     -3.25322391	    -27.67342967	      7.77613615	     -3.65073389	     10.18205005	     -8.73859256	     -0.49449697	    -65.29732106	     -1.01491786	      7.60488806	    -15.51854668	      6.89797180	      0.07090014
      2.82000000	      1.45014330	     -5.99676045	      0.87387207	     -0.32593248	      1.00245017	     -0.16967562	     15.58507310	     10.02866952	     -3.05483769	    -27.14127580	      8.09022085	     -3.66352388	     11.34141507	     -9.06822344	     -0.68631881	    -65.71129166	      0.02404521	      6.63808225	    -15.68229265	      6.82118114	      0.67913601
